<svg width="250" height="250" viewBox="0 0 250 250" fill="none" xmlns="http://www.w3.org/2000/svg">
<path d="M32 197.616V61.7817C32 59.5395 33.6894 57.6588 35.9157 57.4228L124.539 48.0244C124.846 47.9919 125.154 47.9919 125.461 48.0244L214.084 57.4228C216.311 57.6588 218 59.5395 218 61.7817V197.616C218 200.22 215.748 202.249 213.163 201.975L125.461 192.675C125.154 192.642 124.846 192.642 124.539 192.675L36.8373 201.975C34.2523 202.249 32 200.22 32 197.616Z" fill="black"/>
<path d="M36.3765 191.039V61.3601C36.3765 59.1187 38.0647 57.2384 40.29 57.0013L124.537 48.0248C124.845 47.992 125.155 47.992 125.463 48.0248L209.71 57.0013C211.935 57.2384 213.624 59.1187 213.624 61.3601V191.039C213.624 193.643 211.37 195.673 208.784 195.397L125.463 186.52C125.155 186.487 124.845 186.487 124.537 186.52L41.2159 195.397C38.6302 195.673 36.3765 193.643 36.3765 191.039Z" fill="url(#paint0_linear_13_2)"/>
<path fill-rule="evenodd" clip-rule="evenodd" d="M95.9935 171.52C95.5187 173.076 93.873 173.916 92.3324 173.402L91.3711 173.081C90.0031 172.624 89.2454 171.137 89.6662 169.756C91.4671 163.843 95.9418 149.153 102.002 133.176C102.322 132.334 102.119 131.391 101.564 130.682C98.9911 127.395 97.7983 123.044 98.0289 117.809C98.3614 110.259 99.6212 104.86 102.084 101.635C103.405 99.906 105.12 98.7426 107.163 98.3513C109.135 97.9739 111.047 98.3843 112.717 99.0896C112.819 99.1322 112.919 99.1763 113.02 99.2218C114.828 100.037 117.068 99.5724 118.056 97.8514C122.035 90.9206 126.298 84.9376 130.738 80.9323C134.432 77.5999 138.676 75.2478 143.306 75.4031C148.052 75.5622 152.256 78.3103 155.89 83.0863C163.261 92.7766 163.232 102.824 158.946 111.478C154.775 119.9 146.682 126.859 138.036 131.351C129.435 135.819 119.641 138.175 111.79 136.614C111.635 136.583 111.482 136.551 111.328 136.517C109.532 136.12 107.59 136.949 106.95 138.676C101.656 152.971 97.7383 165.804 95.9935 171.52ZM111.51 126.925C110.951 128.298 111.616 129.876 113.068 130.165C118.91 131.326 127.135 129.607 135.014 125.514C142.848 121.444 149.697 115.356 153.065 108.556C156.318 101.989 156.426 94.64 150.668 87.071C147.736 83.2172 145.171 82.0443 143.087 81.9744C140.888 81.9007 138.242 83.0116 135.132 85.8176C130.635 89.8748 126.065 96.6589 121.671 104.886C121.421 105.353 121.499 105.926 121.854 106.319C123.862 108.547 125.767 111.031 127.437 113.455C128.467 114.949 128.005 116.983 126.473 117.954C124.941 118.924 122.919 118.462 121.884 116.972C121.362 116.22 120.818 115.467 120.258 114.723C119.271 113.412 117.284 113.662 116.598 115.152C114.827 118.998 113.126 122.959 111.51 126.925ZM112.029 109.428C112.692 108.038 112.357 106.312 111.012 105.564C110.721 105.402 110.439 105.263 110.167 105.148C109.264 104.767 108.705 104.75 108.396 104.809C108.159 104.855 107.786 104.992 107.298 105.63C106.145 107.14 104.911 110.745 104.587 118.099C104.485 120.414 107.009 120.617 107.926 118.489C108.81 116.438 109.714 114.403 110.636 112.399C111.095 111.404 111.559 110.413 112.029 109.428Z" fill="#434343"/>
<defs>
<linearGradient id="paint0_linear_13_2" x1="213.624" y1="122.033" x2="36.3765" y2="121.858" gradientUnits="userSpaceOnUse">
<stop stop-color="#EEEEEE"/>
<stop offset="0.4" stop-color="white"/>
<stop offset="0.5" stop-color="#D9D9D9"/>
<stop offset="0.6" stop-color="white"/>
<stop offset="1" stop-color="#EEEEEE"/>
</linearGradient>
</defs>
</svg>
