<svg width="512" height="512" viewBox="0 0 512 512" fill="none" xmlns="http://www.w3.org/2000/svg">
<g clip-path="url(#clip0_10_8)">
<path d="M0 0H512V512H0" fill="#B31942"/>
<path fill-rule="evenodd" clip-rule="evenodd" d="M512 42.56H0V0H512V42.56ZM0 90.56H512V138.56H0V90.56ZM512 234.56H0V186.56H512V234.56ZM0 282.56H512V330.56H0V282.56ZM512 426.56H0V378.56H512V426.56ZM0 474.56H512V512H0V474.56Z" fill="white"/>
<path d="M0 0L275.2 3.90244e-05V282.88H0" fill="#0A3161"/>
<path d="M0 122.938V99.5456L2.97461 108.701H16.9242L5.63875 116.9L9.94941 130.167L0 122.938Z" fill="white"/>
<path d="M0 190.138V166.746L2.97461 175.901H16.9242L5.63875 184.1L9.94941 197.367L0 190.138Z" fill="white"/>
<path d="M0 257.338V233.946L2.97462 243.1H16.9242L5.63876 251.3L9.94943 264.567L0 257.338Z" fill="white"/>
<path d="M194.52 3.3989e-05H198.008L200.575 7.9005H214.524L203.239 16.0999L207.549 29.3668L196.264 21.1674L184.979 29.3668L189.289 16.0999L178.004 7.9005H191.953L194.52 3.3989e-05Z" fill="white"/>
<path d="M115.48 3.3989e-05H118.968L121.535 7.9005H135.484L124.199 16.0999L128.509 29.3668L117.224 21.1674L105.938 29.3668L110.249 16.0999L98.9637 7.9005H112.913L115.48 3.3989e-05Z" fill="white"/>
<path d="M36.4403 3.3989e-05H39.9276L42.4946 7.9005H56.4442L45.1588 16.0999L49.4694 29.3668L38.184 21.1674L26.8985 29.3668L31.2091 16.0999L19.9237 7.9005H33.8733L36.4403 3.3989e-05Z" fill="white"/>
<path d="M0 32.3456L2.97461 41.5005H16.9242L5.63875 49.6999L9.94941 62.9668L0 55.7381V32.3456Z" fill="white"/>
<path d="M38.1839 61.8336L42.4946 75.1005H56.4442L45.1588 83.2999L49.4694 96.5667L38.184 88.3674L26.8985 96.5667L31.2091 83.2999L19.9237 75.1005H33.8733L38.1839 61.8336Z" fill="white"/>
<path d="M42.4946 142.301L38.1839 129.034L33.8733 142.301H19.9237L31.2091 150.5L26.8985 163.767L38.184 155.567L49.4694 163.767L45.1588 150.5L56.4442 142.301H42.4946Z" fill="white"/>
<path d="M38.1839 196.234L42.4946 209.501H56.4442L45.1588 217.7L49.4694 230.967L38.184 222.767L26.8985 230.967L31.2091 217.7L19.9237 209.501H33.8733L38.1839 196.234Z" fill="white"/>
<path d="M77.7039 28.2336L82.0146 41.5005H95.9642L84.6788 49.6999L88.9894 62.9668L77.704 54.7674L66.4185 62.9668L70.7291 49.6999L59.4437 41.5005H73.3933L77.7039 28.2336Z" fill="white"/>
<path d="M82.0146 108.701L77.7039 95.4336L73.3933 108.701H59.4437L70.7291 116.9L66.4185 130.167L77.704 121.967L88.9894 130.167L84.6788 116.9L95.9642 108.701H82.0146Z" fill="white"/>
<path d="M77.7039 162.634L82.0146 175.901H95.9642L84.6788 184.1L88.9894 197.367L77.704 189.167L66.4185 197.367L70.7291 184.1L59.4437 175.901H73.3933L77.7039 162.634Z" fill="white"/>
<path d="M82.0146 243.1L77.704 229.834L73.3933 243.1H59.4437L70.7291 251.3L66.4185 264.567L77.704 256.367L88.9894 264.567L84.6788 251.3L95.9642 243.1H82.0146Z" fill="white"/>
<path d="M121.535 75.1005L117.224 61.8336L112.913 75.1005H98.9637L110.249 83.2999L105.938 96.5667L117.224 88.3674L128.509 96.5667L124.199 83.2999L135.484 75.1005H121.535Z" fill="white"/>
<path d="M117.224 129.034L121.535 142.301H135.484L124.199 150.5L128.509 163.767L117.224 155.567L105.938 163.767L110.249 150.5L98.9637 142.301H112.913L117.224 129.034Z" fill="white"/>
<path d="M121.535 209.501L117.224 196.234L112.913 209.501H98.9637L110.249 217.7L105.938 230.967L117.224 222.767L128.509 230.967L124.199 217.7L135.484 209.501H121.535Z" fill="white"/>
<path d="M161.055 41.5005L156.744 28.2336L152.433 41.5005H138.484L149.769 49.6999L145.459 62.9668L156.744 54.7674L168.029 62.9668L163.719 49.6999L175.004 41.5005H161.055Z" fill="white"/>
<path d="M156.744 95.4336L161.055 108.701H175.004L163.719 116.9L168.029 130.167L156.744 121.967L145.459 130.167L149.769 116.9L138.484 108.701H152.433L156.744 95.4336Z" fill="white"/>
<path d="M161.055 175.901L156.744 162.634L152.433 175.901H138.484L149.769 184.1L145.459 197.367L156.744 189.167L168.029 197.367L163.719 184.1L175.004 175.901H161.055Z" fill="white"/>
<path d="M156.744 229.834L161.055 243.1H175.004L163.719 251.3L168.029 264.567L156.744 256.367L145.459 264.567L149.769 251.3L138.484 243.1H152.433L156.744 229.834Z" fill="white"/>
<path d="M196.264 61.8336L200.575 75.1005H214.524L203.239 83.2999L207.549 96.5667L196.264 88.3674L184.979 96.5667L189.289 83.2999L178.004 75.1005H191.953L196.264 61.8336Z" fill="white"/>
<path d="M200.575 142.301L196.264 129.034L191.953 142.301H178.004L189.289 150.5L184.979 163.767L196.264 155.567L207.549 163.767L203.239 150.5L214.524 142.301H200.575Z" fill="white"/>
<path d="M196.264 196.234L200.575 209.501H214.524L203.239 217.7L207.549 230.967L196.264 222.767L184.979 230.967L189.289 217.7L178.004 209.501H191.953L196.264 196.234Z" fill="white"/>
<path d="M235.784 28.2336L240.095 41.5005H254.044L242.759 49.6999L247.07 62.9668L235.784 54.7674L224.499 62.9668L228.809 49.6999L217.524 41.5005H231.473L235.784 28.2336Z" fill="white"/>
<path d="M240.095 108.701L235.784 95.4336L231.473 108.701H217.524L228.809 116.9L224.499 130.167L235.784 121.967L247.07 130.167L242.759 116.9L254.044 108.701H240.095Z" fill="white"/>
<path d="M235.784 162.634L240.095 175.901H254.044L242.759 184.1L247.07 197.367L235.784 189.167L224.499 197.367L228.809 184.1L217.524 175.901H231.473L235.784 162.634Z" fill="white"/>
<path d="M240.095 243.1L235.784 229.834L231.473 243.1H217.524L228.809 251.3L224.499 264.567L235.784 256.367L247.07 264.567L242.759 251.3L254.044 243.1H240.095Z" fill="white"/>
</g>
<defs>
<clipPath id="clip0_10_8">
<rect width="512" height="512" fill="white"/>
</clipPath>
</defs>
</svg>
